<svg xmlns="http://www.w3.org/2000/svg"  viewBox="0 0 100 100" width="50px" height="50px"><circle cx="13" cy="30" r="2" fill="#78a0cf"/><circle cx="77" cy="14" r="1" fill="#f1bc19"/><circle cx="50" cy="51" r="37" fill="#cee1f4"/><circle cx="83" cy="16" r="4" fill="#f1bc19"/><circle cx="87" cy="25" r="2" fill="#78a0cf"/><circle cx="81" cy="77" r="2" fill="#fbcd59"/><circle cx="15" cy="64" r="4" fill="#fbcd59"/><circle cx="25" cy="88" r="2" fill="#78a0cf"/><circle cx="21" cy="68" r="1" fill="#f1bc19"/><circle cx="80" cy="35" r="1" fill="#fff"/><g><path fill="#fff" d="M74.047,47.596v-2.068h-3.924l-1.725-0.03c-1.474,0-2.482,0.97-2.878,2.098v-2.068h-4.394V58.94 h4.394v-2.876v-4.452c0-1.337,1.084-2.421,2.421-2.421h1.713v9.749h4.394v-2.876v-4.452c0-1.337,1.084-2.421,2.421-2.421h2.182 v-3.664l-1.725-0.03C75.451,45.497,74.444,46.468,74.047,47.596z"/><polygon fill="#fff" points="43.263,45.528 40.905,53.279 38.547,45.528 34.153,45.528 38.927,58.94 39.183,58.94 42.627,58.94 42.883,58.94 47.656,45.528"/><path fill="#fff" d="M25.308,45.528v-0.894c0-0.783,0.635-1.418,1.418-1.418H29.5v-3.679h-3.81 c-2.637,0-4.775,2.138-4.775,4.775v1.216h-2.569v3.555h2.569v9.857h4.394v-9.857H29.5v9.857h4.394v-9.857v-3.555H29.5H25.308z"/><path fill="#fff" d="M53.748,45.347h-0.535c-3.6,0-6.518,2.918-6.518,6.518v0.737c0,3.6,2.918,6.518,6.518,6.518h1.189 c2.465,0,4.574-1.522,5.441-3.676l-3.876-1.132c0,0-0.464,1.328-2.08,1.328c-1.825,0-2.792-1-2.919-2.132h-0.001v-0.007 c-0.009-0.082-0.014-0.165-0.014-0.249h4.957h4.358v-1.387C60.266,48.265,57.348,45.347,53.748,45.347z M50.957,50.666 c0.053-1.206,1.045-2.168,2.264-2.168h0.419c1.219,0,2.211,0.962,2.264,2.168H50.957z"/><path fill="#20be73" d="M81.425,53.853c-1.509,0-2.732,1.223-2.732,2.732s1.223,2.732,2.732,2.732s2.732-1.223,2.732-2.732 C84.157,55.076,82.934,53.853,81.425,53.853z"/><path fill="#472b29" d="M74.048,59.573h-4.394c-0.35,0-0.633-0.283-0.633-0.633v-9.115h-1.08 c-0.986,0-1.788,0.802-1.788,1.788v7.328c0,0.35-0.283,0.633-0.633,0.633h-4.393c-0.35,0-0.633-0.283-0.633-0.633V45.527 c0-0.35,0.283-0.633,0.633-0.633h4.393c0.35,0,0.633,0.283,0.633,0.633v0.102c0.57-0.457,1.317-0.765,2.245-0.765l1.736,0.03 h3.914c0.35,0,0.633,0.283,0.633,0.633v0.102c0.57-0.457,1.316-0.765,2.245-0.765l1.735,0.03c0.345,0.006,0.622,0.287,0.622,0.633 v3.664c0,0.35-0.283,0.633-0.633,0.633h-2.182c-0.986,0-1.788,0.802-1.788,1.788v7.328C74.681,59.29,74.397,59.573,74.048,59.573z M70.286,58.307h3.128v-6.695c0-1.684,1.37-3.054,3.054-3.054h1.549v-2.409l-1.102-0.019c-1.237,0-1.986,0.866-2.271,1.675 c-0.102,0.291-0.396,0.467-0.704,0.414c-0.304-0.052-0.526-0.315-0.526-0.624V46.16l-5.027-0.03c-1.236,0-1.986,0.866-2.271,1.676 c-0.102,0.29-0.397,0.466-0.704,0.414c-0.304-0.052-0.526-0.315-0.526-0.624V46.16h-3.127v12.146h3.127v-6.695 c0-1.684,1.37-3.054,3.054-3.054h1.713c0.35,0,0.633,0.283,0.633,0.633C70.286,49.19,70.286,58.307,70.286,58.307z"/><path fill="#472b29" d="M42.883,59.573h-3.956c-0.268,0-0.507-0.169-0.596-0.421L33.558,45.74 c-0.069-0.194-0.04-0.409,0.079-0.577s0.312-0.268,0.517-0.268h4.393c0.279,0,0.524,0.182,0.606,0.449l1.752,5.761l1.753-5.761 c0.081-0.267,0.327-0.449,0.606-0.449h4.393c0.206,0,0.398,0.1,0.517,0.268c0.118,0.168,0.147,0.383,0.079,0.577L43.48,59.153 C43.39,59.404,43.151,59.573,42.883,59.573z M39.374,58.307h3.063l4.323-12.146h-3.027l-2.221,7.303 c-0.081,0.267-0.328,0.449-0.606,0.449l0,0c-0.279,0-0.524-0.182-0.606-0.449l-2.22-7.303h-3.027L39.374,58.307z"/><path fill="#472b29" d="M33.893,59.573h-4.394c-0.35,0-0.633-0.283-0.633-0.633v-9.224h-2.925v9.224 c0,0.35-0.283,0.633-0.633,0.633h-4.394c-0.35,0-0.633-0.283-0.633-0.633v-9.224h-1.935c-0.35,0-0.633-0.283-0.633-0.633v-3.555 c0-0.35,0.283-0.633,0.633-0.633h1.935v-0.583c0-2.982,2.426-5.408,5.409-5.408h3.81c0.35,0,0.633,0.283,0.633,0.633v3.679 c0,0.35-0.283,0.633-0.633,0.633h-2.773c-0.433,0-0.785,0.352-0.785,0.785v0.261h7.952c0.35,0,0.633,0.283,0.633,0.633V58.94 C34.527,59.29,34.243,59.573,33.893,59.573z M30.132,58.307h3.128V46.16h-7.952c-0.35,0-0.633-0.283-0.633-0.633v-0.894 c0-1.131,0.92-2.051,2.051-2.051h2.14v-2.413H25.69c-2.284,0-4.143,1.858-4.143,4.142v1.216c0,0.35-0.283,0.633-0.633,0.633 h-1.935v2.289h1.935c0.35,0,0.633,0.283,0.633,0.633v9.224h3.128v-9.224c0-0.35,0.283-0.633,0.633-0.633h4.191 c0.35,0,0.633,0.283,0.633,0.633V58.307z"/><path fill="#472b29" d="M54.402,59.754h-1.188c-3.944,0-7.152-3.208-7.152-7.151v-0.737c0-3.943,3.208-7.151,7.152-7.151 h0.534c3.943,0,7.151,3.208,7.151,7.151v1.387c0,0.35-0.283,0.633-0.633,0.633h-3.504l3.258,0.951 c0.171,0.05,0.313,0.17,0.392,0.331c0.078,0.161,0.085,0.347,0.018,0.513C59.434,58.155,57.069,59.754,54.402,59.754z M53.214,45.98c-3.246,0-5.886,2.64-5.886,5.885v0.737c0,3.245,2.641,5.885,5.886,5.885h1.188c1.909,0,3.627-1.018,4.548-2.645 l-2.674-0.78c-0.354,0.515-1.075,1.211-2.39,1.211c-2.242,0-3.397-1.353-3.547-2.695c-0.012-0.113-0.019-0.219-0.019-0.326 c0-0.35,0.283-0.633,0.633-0.633h8.682v-0.754c0-3.246-2.64-5.885-5.885-5.885C53.75,45.98,53.214,45.98,53.214,45.98z M51.715,53.886c0.258,0.6,0.921,1.122,2.171,1.122c1.11,0,1.451-0.818,1.486-0.911c0.031-0.08,0.076-0.151,0.132-0.211 C55.504,53.886,51.715,53.886,51.715,53.886z M55.904,51.298h-4.948c-0.173,0-0.338-0.071-0.457-0.196s-0.183-0.293-0.175-0.466 c0.07-1.554,1.342-2.772,2.897-2.772h0.418c1.555,0,2.827,1.218,2.897,2.772c0.008,0.173-0.056,0.341-0.175,0.466 C56.242,51.228,56.077,51.298,55.904,51.298z M51.76,50.032h3.341c-0.268-0.537-0.823-0.901-1.461-0.901h-0.418 C52.583,49.131,52.028,49.496,51.76,50.032z"/><path fill="#472b29" d="M81.425,59.949c-1.855,0-3.365-1.509-3.365-3.364s1.51-3.365,3.365-3.365s3.365,1.509,3.365,3.365 C84.79,58.439,83.28,59.949,81.425,59.949z M81.425,54.486c-1.157,0-2.099,0.941-2.099,2.099c0,1.157,0.941,2.098,2.099,2.098 s2.099-0.941,2.099-2.098C83.524,55.427,82.583,54.486,81.425,54.486z"/></g></svg>